<?xml version="1.0" encoding="iso-8859-1"?>
<!-- Generator: Adobe Illustrator 19.0.0, SVG Export Plug-In . SVG Version: 6.00 Build 0)  -->
<svg fill="#d51c2a" version="1.1" id="Capa_1" xmlns="http://www.w3.org/2000/svg" xmlns:xlink="http://www.w3.org/1999/xlink" x="0px"
     y="0px"
     viewBox="0 0 512 512" style="enable-background:new 0 0 512 512;" xml:space="preserve">
<g>
	<g>
		<path d="M424.992,203.989l-116.77-16.967L256,81.21l-52.221,105.813L87.009,203.99l84.495,82.363l-19.946,116.299L256,347.743
			l104.442,54.909l-19.945-116.3L424.992,203.989z M256,313.85l-64.599,33.962l12.337-71.932l-52.261-50.942l72.223-10.495
			l32.3-65.446l32.3,65.445l72.223,10.495l-52.261,50.942l12.337,71.932L256,313.85z"/>
	</g>
</g>
    <g>
	<g>
		<rect x="241" width="30" height="51.45"/>
	</g>
</g>
    <g>
	<g>
		<rect x="241" y="460.55" width="30" height="51.45"/>
	</g>
</g>
    <g>
	<g>
		<rect x="152.877" y="17.526" transform="matrix(0.9239 -0.3827 0.3827 0.9239 -3.7725 67.5375)" width="30.001"
              height="51.451"/>
	</g>
</g>
    <g>
	<g>
		
			<rect x="329.118" y="443.039" transform="matrix(0.9239 -0.3827 0.3827 0.9239 -153.196 167.3742)"
                  width="30.001" height="51.451"/>
	</g>
</g>
    <g>
	<g>
		<rect x="78.174" y="67.447" transform="matrix(0.7071 -0.7071 0.7071 0.7071 -38.5923 93.173)" width="30"
              height="51.45"/>
	</g>
</g>
    <g>
	<g>
		<rect x="403.827" y="393.101" transform="matrix(0.7071 -0.7071 0.7071 0.7071 -173.4832 418.8271)" width="30"
              height="51.449"/>
	</g>
</g>
    <g>
	<g>
		
			<rect x="28.254" y="142.158" transform="matrix(0.3827 -0.9239 0.9239 0.3827 -128.4023 143.5984)"
                  width="30.001" height="51.451"/>
	</g>
</g>
    <g>
	<g>
		
			<rect x="453.748" y="318.416" transform="matrix(0.3827 -0.9239 0.9239 0.3827 -28.5806 645.5083)"
                  width="30.001" height="51.451"/>
	</g>
</g>
    <g>
	<g>
		<rect y="241" width="51.45" height="30"/>
	</g>
</g>
    <g>
	<g>
		<rect x="460.55" y="241" width="51.45" height="30"/>
	</g>
</g>
    <g>
	<g>
		
			<rect x="17.519" y="329.125" transform="matrix(0.9239 -0.3827 0.3827 0.9239 -128.4013 42.7452)"
                  width="51.451" height="30.001"/>
	</g>
</g>
    <g>
	<g>
		
			<rect x="443.035" y="152.894" transform="matrix(0.9239 -0.3827 0.3827 0.9239 -28.5677 192.1713)"
                  width="51.451" height="30.001"/>
	</g>
</g>
    <g>
	<g>
		<rect x="67.455" y="403.822" transform="matrix(0.7071 -0.7071 0.7071 0.7071 -268.86 188.5578)" width="51.45"
              height="30"/>
	</g>
</g>
    <g>
	<g>
		<rect x="393.096" y="78.169" transform="matrix(0.7071 -0.7071 0.7071 0.7071 56.7895 323.4394)" width="51.45"
              height="30"/>
	</g>
</g>
    <g>
	<g>
		
			<rect x="142.15" y="453.758" transform="matrix(0.3827 -0.9239 0.9239 0.3827 -329.4435 444.4651)"
                  width="51.451" height="30.001"/>
	</g>
</g>
    <g>
	<g>
		<rect x="318.4" y="28.257" transform="matrix(0.3827 -0.9239 0.9239 0.3827 172.4674 344.6322)" width="51.451"
              height="30.001"/>
	</g>
</g>
    <g>
</g>
    <g>
</g>
    <g>
</g>
    <g>
</g>
    <g>
</g>
    <g>
</g>
    <g>
</g>
    <g>
</g>
    <g>
</g>
    <g>
</g>
    <g>
</g>
    <g>
</g>
    <g>
</g>
    <g>
</g>
    <g>
</g>
</svg>
