<svg id="Capa_1" enable-background="new 0 0 512 512" height="512" viewBox="0 0 512 512" width="512"
     xmlns="http://www.w3.org/2000/svg">
    <path fill="#d51c2a" d="m469.145 165.207 12.687-15.502c7.842-9.582 11.483-21.645 10.252-33.967-1.231-12.321-7.187-23.426-16.769-31.267-9.581-7.842-21.638-11.485-33.966-10.253-12.321 1.23-23.426 7.186-31.268 16.768l-12.385 15.134c-9.506-4.782-19.427-8.851-29.697-12.139v-50.148h27.667v-30h-181.332v30h27.666v50.148c-10.269 3.288-20.19 7.357-29.696 12.139l-12.385-15.134c-7.842-9.582-18.946-15.537-31.268-16.768-12.319-1.232-24.384 2.41-33.967 10.252-9.582 7.842-15.538 18.947-16.769 31.268-1.23 12.321 2.411 24.384 10.253 33.966l12.686 15.502c-17.05 22.166-29.716 47.863-36.695 75.794h-50.825v30h45.65c-.644 6.638-.984 13.363-.984 20.167 0 4.649.17 9.259.473 13.833h-98.473v30h102.686c2.539 11.732 6.075 23.096 10.516 34h-59.868v30h75.038c36.417 59.431 101.967 99.167 176.628 99.167 114.141 0 207-92.86 207-207 0-47.357-15.997-91.042-42.855-125.96zm-341.145 125.96c0-97.598 79.401-177 177-177s177 79.402 177 177-79.401 177-177 177-177-79.402-177-177zm210-247.334v42.975c-10.75-1.729-21.77-2.642-33-2.642s-22.25.912-33 2.642v-42.975zm95.299 66.153c2.767-3.381 6.685-5.482 11.032-5.916 4.349-.439 8.605.851 11.985 3.617 6.979 5.712 8.011 16.039 2.299 23.018l-9.689 11.839c-7.833-7.588-16.26-14.565-25.208-20.852zm-285.531 8.733c.435-4.347 2.536-8.265 5.917-11.032 3.381-2.768 7.643-4.052 11.985-3.618 4.348.434 8.266 2.535 11.032 5.916l9.58 11.706c-8.947 6.287-17.374 13.263-25.208 20.851l-9.688-11.839c-2.768-3.38-4.052-7.636-3.618-11.984z"/>
    <path fill="#d51c2a" d="m431 276.167h-111v-111h-15c-69.477 0-126 56.523-126 126s56.523 126 126 126 126-56.523 126-126zm-222 15c0-47.833 35.164-87.607 81-94.83v109.83h109.83c-7.223 45.835-46.997 81-94.83 81-52.935 0-96-43.066-96-96z"/>
</svg>
